<svg xmlns="http://www.w3.org/2000/svg" viewBox="0 0 480 480" fill="#fff6dc"><circle cx="0.0" cy="442.0" r="0.71" opacity="0.68"/><circle cx="255.7" cy="158.1" r="0.98" opacity="0.59"/><circle cx="328.6" cy="305.2" r="0.72" opacity="0.52"/><circle cx="339.8" cy="335.1" r="0.94" opacity="0.56"/><circle cx="442.8" cy="387.6" r="0.86" opacity="0.77"/><circle cx="330.5" cy="309.0" r="1.06" opacity="0.76"/><circle cx="178.7" cy="161.0" r="0.77" opacity="0.42"/><circle cx="142.9" cy="205.7" r="1.07" opacity="0.60"/><circle cx="350.1" cy="421.4" r="0.74" opacity="0.60"/><circle cx="244.2" cy="202.3" r="1.05" opacity="0.37"/><circle cx="175.4" cy="165.2" r="1.06" opacity="0.58"/><circle cx="79.5" cy="194.7" r="0.78" opacity="0.54"/><circle cx="159.6" cy="255.2" r="0.72" opacity="0.76"/><circle cx="219.8" cy="414.2" r="0.92" opacity="0.58"/><circle cx="242.4" cy="330.7" r="1.40" opacity="0.95"/><circle cx="190.4" cy="340.0" r="0.89" opacity="0.51"/><circle cx="158.7" cy="187.9" r="1.04" opacity="0.40"/><circle cx="393.2" cy="37.3" r="0.68" opacity="0.39"/><circle cx="478.2" cy="105.6" r="0.67" opacity="0.56"/><circle cx="284.6" cy="66.1" r="1.40" opacity="0.95"/><circle cx="424.6" cy="427.5" r="1.40" opacity="0.95"/><circle cx="435.7" cy="365.3" r="0.61" opacity="0.46"/><circle cx="36.5" cy="0.8" r="0.72" opacity="0.68"/><circle cx="234.9" cy="330.0" r="1.04" opacity="0.46"/><circle cx="179.5" cy="429.3" r="0.84" opacity="0.35"/><circle cx="438.2" cy="305.7" r="1.40" opacity="0.95"/><circle cx="10.1" cy="432.0" r="1.08" opacity="0.60"/><circle cx="326.1" cy="127.8" r="0.70" opacity="0.60"/><circle cx="25.1" cy="369.3" r="0.96" opacity="0.57"/><circle cx="15.7" cy="52.9" r="1.40" opacity="0.95"/><circle cx="62.8" cy="330.2" r="1.40" opacity="0.95"/><circle cx="17.8" cy="423.9" r="1.40" opacity="0.95"/><circle cx="476.5" cy="458.1" r="0.81" opacity="0.46"/><circle cx="349.3" cy="423.5" r="0.72" opacity="0.53"/><circle cx="425.8" cy="268.2" r="0.91" opacity="0.68"/><circle cx="160.8" cy="348.1" r="0.70" opacity="0.49"/><circle cx="473.0" cy="477.2" r="1.04" opacity="0.76"/><circle cx="95.8" cy="309.7" r="0.85" opacity="0.60"/><circle cx="370.3" cy="454.0" r="0.69" opacity="0.55"/><circle cx="79.7" cy="318.1" r="0.88" opacity="0.58"/><circle cx="363.4" cy="174.0" r="0.61" opacity="0.48"/><circle cx="260.0" cy="97.3" r="0.75" opacity="0.46"/><circle cx="316.6" cy="206.0" r="0.99" opacity="0.72"/><circle cx="439.4" cy="436.8" r="1.08" opacity="0.36"/><circle cx="365.8" cy="288.5" r="1.05" opacity="0.37"/><circle cx="65.3" cy="38.5" r="0.64" opacity="0.35"/></svg>
